HIERARCHY
ROOT Hips
{
	OFFSET 15.585500 22.159004 44.358299
	CHANNELS 6 Xposition Yposition Zposition Zrotation Xrotation Yrotation
	JOINT Chest
	{
		OFFSET -0.128500 0.160400 6.566002
		CHANNELS 6 Xposition Yposition Zposition Zrotation Xrotation Yrotation
		JOINT Chest2
		{
			OFFSET 0.000000 0.000000 3.554802
			CHANNELS 6 Xposition Yposition Zposition Zrotation Xrotation Yrotation
			JOINT Neck
			{
				OFFSET 0.000000 0.000000 8.267998
				CHANNELS 6 Xposition Yposition Zposition Zrotation Xrotation Yrotation
				JOINT Head
				{
					OFFSET 0.000000 0.000002 2.173897
					CHANNELS 6 Xposition Yposition Zposition Zrotation Xrotation Yrotation
					End Site
					{
						OFFSET 0.000000 0.000000 7.718697
					}
				}
			}
			JOINT LeftCollar
			{
				OFFSET 2.057500 0.117599 5.946301
				CHANNELS 6 Xposition Yposition Zposition Zrotation Xrotation Yrotation
				JOINT LeftShoulder
				{
					OFFSET 4.957699 0.000000 0.000000
					CHANNELS 6 Xposition Yposition Zposition Zrotation Xrotation Yrotation
					JOINT LeftElbow
					{
						OFFSET 0.000000 0.000000 -8.465500
						CHANNELS 6 Xposition Yposition Zposition Zrotation Xrotation Yrotation
						JOINT LeftWrist
						{
							OFFSET 0.000000 -0.000002 -14.594898
							CHANNELS 6 Xposition Yposition Zposition Zrotation Xrotation Yrotation
							End Site
							{
								OFFSET 0.000000 0.000000 -2.173901
							}
						}
					}
				}
			}
			JOINT RightCollar
			{
				OFFSET -3.048500 -0.728800 6.604099
				CHANNELS 6 Xposition Yposition Zposition Zrotation Xrotation Yrotation
				JOINT RightShoulder
				{
					OFFSET -3.710299 0.000000 0.000000
					CHANNELS 6 Xposition Yposition Zposition Zrotation Xrotation Yrotation
					JOINT RightElbow
					{
						OFFSET 0.000000 0.000000 -10.450901
						CHANNELS 6 Xposition Yposition Zposition Zrotation Xrotation Yrotation
						JOINT RightWrist
						{
							OFFSET 0.000000 0.000000 -12.539200
							CHANNELS 6 Xposition Yposition Zposition Zrotation Xrotation Yrotation
							End Site
							{
								OFFSET 0.000000 -0.000002 -2.173901
							}
						}
					}
				}
			}
		}
	}
	JOINT LeftHip
	{
		OFFSET 2.442599 -0.601400 -2.767502
		CHANNELS 6 Xposition Yposition Zposition Zrotation Xrotation Yrotation
		JOINT LeftKnee
		{
			OFFSET 0.000000 -0.000002 -17.033703
			CHANNELS 6 Xposition Yposition Zposition Zrotation Xrotation Yrotation
			JOINT LeftAnkle
			{
				OFFSET 0.000000 -0.000002 -19.318800
				CHANNELS 6 Xposition Yposition Zposition Zrotation Xrotation Yrotation
				End Site
				{
					OFFSET 0.000000 -8.281900 0.000000
				}
			}
		}
	}
	JOINT RightHip
	{
		OFFSET -3.126200 -0.601400 -2.283501
		CHANNELS 6 Xposition Yposition Zposition Zrotation Xrotation Yrotation
		JOINT RightKnee
		{
			OFFSET 0.000000 -0.000002 -16.919401
			CHANNELS 6 Xposition Yposition Zposition Zrotation Xrotation Yrotation
			JOINT RightAnkle
			{
				OFFSET 0.000000 -0.000002 -18.035900
				CHANNELS 6 Xposition Yposition Zposition Zrotation Xrotation Yrotation
				End Site
				{
					OFFSET 0.000000 -9.230099 0.000000
				}
			}
		}
	}
}
MOTION
Frames: 7
Frame Time: 0.041667
23.827801 25.767506 39.119499 -1.091942 13.527985 -1.722389 -0.128498 0.160396 6.566003 0.722206 17.868989 0.621566 -0.000003 -0.000004 3.554801 0.075665 -5.967328 -0.557058 -0.000001 0.000002 8.268004 0.213770 0.545550 2.620368 0.000003 0.000001 2.173893 -0.274716 -2.099169 -0.553503 2.057505 0.117601 5.946307 -21.760329 2.206548 6.650449 4.957699 0.000005 0.000016 -19.175068 -14.199905 -38.247212 0.000000 0.000004 -8.465494 -136.783677 -161.918295 -157.420028 0.000001 0.000003 -14.594890 46.358956 -32.143092 48.793406 -3.048505 -0.728801 6.604103 31.118021 1.369420 -11.376840 -3.710287 0.000001 0.000009 22.214029 -2.585819 38.560151 0.000000 0.000005 -10.450891 -27.378335 -19.656340 -11.789304 -0.000002 0.000002 -12.539195 -45.490228 -5.295485 -44.506080 2.442602 -0.601399 -2.767499 42.301629 -35.446431 30.727699 0.000001 -0.000006 -17.033703 -85.099950 42.591888 53.758892 0.000004 -0.000000 -19.318802 41.428837 1.801376 23.459837 -3.126195 -0.601405 -2.283499 -117.115246 -43.106396 -64.197440 0.000002 -0.000002 -16.919401 125.299574 36.882741 -81.010797 0.000001 -0.000009 -18.035896 6.891034 44.712126 -111.157552
23.848600 25.747606 39.164906 -1.181269 13.345329 -1.694565 -0.128500 0.160400 6.566003 0.817723 17.851447 0.592214 -0.000004 -0.000003 3.554807 -0.219184 -5.968115 -0.582244 0.000001 0.000004 8.267997 0.476097 0.794740 2.599549 0.000001 0.000006 2.173908 -0.279898 -2.000876 -0.539755 2.057505 0.117602 5.946304 -21.427485 2.124696 6.580733 4.957698 0.000009 0.000007 -19.032636 -13.922689 -37.923604 -0.000002 -0.000005 -8.465492 -137.207039 -162.476622 -158.020238 -0.000002 0.000001 -14.594893 46.663053 -31.970019 48.692419 -3.048499 -0.728799 6.604096 31.313624 1.256831 -11.359815 -3.710293 0.000002 0.000006 22.179224 -2.558086 38.483625 0.000002 0.000002 -10.450882 -27.796088 -18.630256 -11.312006 -0.000004 0.000006 -12.539188 -45.287883 -5.158402 -43.936807 2.442595 -0.601398 -2.767503 41.897203 -35.295610 30.256136 0.000001 -0.000005 -17.033707 -84.339381 42.661403 53.309719 0.000004 -0.000004 -19.318800 41.193916 1.899719 23.164640 -3.126200 -0.601403 -2.283503 -117.050687 -43.193853 -63.973956 0.000004 0.000001 -16.919394 125.084628 37.091544 -80.769248 0.000000 -0.000006 -18.035898 7.060333 44.939639 -111.701952
23.869198 25.726706 39.212402 -1.269236 13.156862 -1.666861 -0.128497 0.160399 6.566005 0.911260 17.831816 0.567566 -0.000001 -0.000001 3.554811 -0.225222 -5.973634 -0.590049 0.000003 0.000007 8.268006 0.448976 1.043229 2.582293 0.000003 -0.000002 2.173894 -0.279224 -1.901864 -0.519991 2.057508 0.117603 5.946313 -21.387919 2.043738 6.517473 4.957701 -0.000004 0.000007 -18.879811 -13.650288 -37.601127 0.000001 0.000000 -8.465496 -137.617206 -163.012669 -158.595203 -0.000003 -0.000000 -14.594902 47.017154 -31.791399 48.533203 -3.048497 -0.728799 6.604107 31.218343 1.152529 -11.344387 -3.710294 -0.000000 0.000004 22.128985 -2.539424 38.413824 0.000001 0.000005 -10.450891 -28.248776 -17.686676 -10.963831 -0.000005 0.000006 -12.539198 -45.090334 -5.068490 -43.201787 2.442603 -0.601398 -2.767507 41.465880 -35.140111 29.754671 0.000003 -0.000003 -17.033703 -83.549251 42.715228 52.859876 0.000002 -0.000004 -19.318802 40.956871 1.981498 22.895726 -3.126193 -0.601400 -2.283503 -116.959504 -43.291590 -63.738472 -0.000001 0.000001 -16.919399 124.850408 37.321998 -80.505575 0.000002 -0.000005 -18.035898 7.359979 45.270989 -111.791284
23.889496 25.704805 39.261703 -1.355877 12.962339 -1.637826 -0.128505 0.160402 6.566008 1.003467 17.809186 0.545262 -0.000001 -0.000004 3.554805 -0.231205 -5.980851 -0.599047 0.000002 -0.000001 8.268003 0.419802 1.292668 2.558364 0.000001 0.000002 2.173888 -0.274265 -1.802316 -0.495490 2.057507 0.117597 5.946307 -21.354633 1.969158 6.452450 4.957701 -0.000001 0.000007 -18.718374 -13.383170 -37.283131 0.000000 0.000005 -8.465504 -138.012319 -163.529455 -159.146058 0.000002 0.000001 -14.594897 47.409545 -31.603364 48.304518 -3.048496 -0.728801 6.604100 31.122652 1.053567 -11.339387 -3.710290 0.000006 0.000005 22.061059 -2.531477 38.351557 -0.000000 -0.000001 -10.450899 -28.703406 -16.723626 -10.414647 -0.000004 0.000007 -12.539192 -44.938120 -4.875005 -42.597813 2.442596 -0.601391 -2.767504 41.004238 -34.980093 29.222275 -0.000001 -0.000004 -17.033703 -82.734539 42.749925 52.411306 0.000003 -0.000006 -19.318802 40.722862 2.046587 22.659998 -3.126202 -0.601397 -2.283501 -116.838500 -43.400893 -63.488227 -0.000003 0.000002 -16.919397 124.600136 37.569718 -80.222170 0.000002 -0.000004 -18.035898 7.658396 45.623413 -111.815504
23.909296 25.681606 39.312698 -1.441184 12.762206 -1.605995 -0.128502 0.160402 6.566004 1.095281 17.782809 0.522568 -0.000000 -0.000002 3.554795 -0.237103 -5.988860 -0.609035 -0.000000 -0.000001 8.267997 0.388693 1.543899 2.529186 0.000000 0.000009 2.173899 -0.365778 -1.709945 -0.526795 2.057504 0.117599 5.946309 -21.327406 1.901265 6.388068 4.957702 0.000000 0.000009 -18.551378 -13.120738 -36.973334 -0.000003 0.000001 -8.465495 -138.390438 -164.029875 -159.674974 0.000001 0.000004 -14.594891 47.824465 -31.402802 47.998611 -3.048500 -0.728804 6.604105 31.028993 0.961382 -11.343281 -3.710289 0.000000 0.000008 21.973813 -2.535544 38.296901 -0.000000 0.000001 -10.450890 -29.155106 -15.796421 -9.868193 -0.000005 0.000002 -12.539193 -44.833946 -4.685171 -41.937146 2.442600 -0.601394 -2.767504 40.510474 -34.815892 28.658982 -0.000000 -0.000002 -17.033707 -81.899849 42.762851 51.965343 -0.000000 -0.000003 -19.318800 40.495983 2.096049 22.461357 -3.126197 -0.601399 -2.283501 -116.684793 -43.522662 -63.220730 0.000001 0.000002 -16.919394 124.337160 37.829409 -79.921191 0.000000 -0.000003 -18.035896 7.940523 45.981551 -111.793381
23.928598 25.657108 39.365303 -1.577465 12.518407 -1.551174 -0.128499 0.160400 6.566009 1.239673 17.791871 0.488365 0.000001 0.000000 3.554805 -0.242768 -5.997263 -0.619598 0.000003 0.000006 8.267999 0.356177 1.796863 2.496270 0.000001 0.000003 2.173895 -0.334546 -1.609167 -0.482915 2.057508 0.117600 5.946307 -21.305197 1.839452 6.326128 4.957705 -0.000000 0.000010 -18.382541 -12.861464 -36.674673 -0.000006 0.000006 -8.465496 -138.749023 -164.517401 -160.184151 0.000000 0.000002 -14.594894 48.242203 -31.188228 47.610814 -3.048496 -0.728800 6.604102 30.938230 0.876189 -11.353480 -3.710299 0.000007 0.000005 21.866350 -2.551226 38.249080 0.000001 0.000004 -10.450887 -29.597027 -14.908578 -9.325301 -0.000004 0.000007 -12.539195 -44.789092 -4.497798 -41.213136 2.442599 -0.601396 -2.767501 40.011754 -34.621976 28.027902 0.000003 0.000001 -17.033699 -81.048384 42.753689 51.522009 0.000002 -0.000001 -19.318796 40.278442 2.131710 22.299417 -3.126194 -0.601403 -2.283498 -116.410124 -43.668159 -62.880962 -0.000001 0.000003 -16.919399 124.064990 38.096657 -79.604216 0.000001 -0.000006 -18.035896 8.194615 46.332264 -111.742523
23.947197 25.631207 39.419300 -1.660826 12.308348 -1.509266 -0.128501 0.160399 6.566009 1.333213 17.756806 0.456748 -0.000002 0.000004 3.554792 -0.248220 -6.005179 -0.630039 0.000002 -0.000001 8.267998 0.322381 2.051076 2.461039 0.000003 0.000011 2.173896 -0.670530 -1.381327 0.181591 2.057504 0.117600 5.946300 -21.286336 1.782942 6.268534 4.957700 0.000000 0.000002 -18.215831 -12.603396 -36.389872 0.000000 0.000001 -8.465488 -139.085860 -164.995268 -160.676717 0.000000 0.000002 -14.594892 48.642176 -30.958806 47.141590 -3.048500 -0.728798 6.604093 30.851418 0.797005 -11.367889 -3.710298 0.000003 0.000009 21.738207 -2.577103 38.208184 0.000006 0.000004 -10.450890 -30.021509 -14.063521 -8.787541 -0.000000 0.000004 -12.539188 -44.815156 -4.311171 -40.420885 2.442600 -0.601397 -2.767494 39.452484 -34.449767 27.406730 -0.000002 -0.000001 -17.033710 -80.182302 42.723011 51.080676 0.000003 -0.000003 -19.318800 40.071367 2.156468 22.171165 -3.126199 -0.601404 -2.283499 -116.187747 -43.814072 -62.575680 0.000001 0.000001 -16.919397 123.786797 38.367556 -79.271654 -0.000001 -0.000005 -18.035902 8.412645 46.665635 -111.676441
